# xmcd CD database file
#
# Track frame offsets:
#	150
#	16705
#	29479
#	53837
#	71188
#	79542
#	91349
#	106826
#	120591
#	133429
#	146632
#	160094
#	185810
#	195687
#	204045
#	216268
#	245427
#	276697
#	290961
#	304724
#
# Disc length: 4613 seconds
#
# Revision: 0
# Processed by: cddbd v1.5.2PL0 Copyright (c) Steve Scherf et al.
# Submitted via: CDex 1.51
#
DISCID=32120314
DTITLE=Oscar Peterson - Back Home Again CD2
DYEAR=1900
DGENRE=Jazz
TTITLE0=Night And Day
TTITLE1=Caravan
TTITLE2=Cheek To Cheek
TTITLE3=Lester Leaps In
TTITLE4=Fliying Home
TTITLE5=S' Wonderful
TTITLE6=Anythig Goes
TTITLE7=Hungarian Dance
TTITLE8=Blue Moon
TTITLE9=Fascinatin' Rythm
TTITLE10=Sleepy Time Gal
TTITLE11=Tenderly
TTITLE12=Rose Room
TTITLE13=Air Mail Special
TTITLE14=Oscars' Boogie
TTITLE15=Blus For Big Scotia
TTITLE16=Blues For Smedley
TTITLE17=Oscar's Blues
TTITLE18=Summer Nocturne
TTITLE19=Gai, Padovani, Ray's Blues
EXTD=
EXTT0=
EXTT1=
EXTT2=
EXTT3=
EXTT4=
EXTT5=
EXTT6=
EXTT7=
EXTT8=
EXTT9=
EXTT10=
EXTT11=
EXTT12=
EXTT13=
EXTT14=
EXTT15=
EXTT16=
EXTT17=
EXTT18=
EXTT19=
PLAYORDER=
